<svg width="32" height="32" viewBox="0 0 32 32" fill="none" xmlns="http://www.w3.org/2000/svg">
<mask id="mask0_952_30218" style="mask-type:alpha" maskUnits="userSpaceOnUse" x="0" y="0" width="32" height="32">
<rect width="32" height="32" fill="#D9D9D9"/>
</mask>
<g mask="url(#mask0_952_30218)">
<path d="M15.0897 25.169L6.67429 16.7536C6.55804 16.6373 6.47641 16.5185 6.42939 16.3972C6.38239 16.2758 6.35889 16.1433 6.35889 15.9997C6.35889 15.8561 6.38239 15.7237 6.42939 15.6023C6.47641 15.4809 6.55804 15.3621 6.67429 15.2459L15.1153 6.80487C15.2401 6.68007 15.3875 6.61639 15.5576 6.61384C15.7277 6.61128 15.8863 6.6835 16.0333 6.8305C16.1803 6.97239 16.255 7.12838 16.2576 7.29847C16.2602 7.46854 16.188 7.62708 16.041 7.7741L8.48199 15.3331H24.5358C24.7256 15.3331 24.8841 15.3967 25.0115 15.5241C25.1388 15.6514 25.2025 15.81 25.2025 15.9997C25.2025 16.1895 25.1388 16.348 25.0115 16.4754C24.8841 16.6027 24.7256 16.6664 24.5358 16.6664H8.48199L16.0666 24.251C16.1914 24.3758 16.255 24.5245 16.2576 24.6972C16.2602 24.8698 16.188 25.0271 16.041 25.169C15.8991 25.316 15.7418 25.3895 15.5692 25.3895C15.3965 25.3895 15.2367 25.316 15.0897 25.169Z" fill="#121927"/>
</g>
</svg>
