<svg width="16" height="16" viewBox="0 0 16 16" fill="none" xmlns="http://www.w3.org/2000/svg">
<g clip-path="url(#clip0_2976_4591)">
<mask id="mask0_2976_4591" style="mask-type:alpha" maskUnits="userSpaceOnUse" x="0" y="0" width="16" height="16">
<rect width="16" height="16" fill="#D9D9D9"/>
</mask>
<g mask="url(#mask0_2976_4591)">
<path d="M7.85714 8.39634L10.3304 10.8696C10.4017 10.9409 10.4891 10.979 10.5927 10.9839C10.6962 10.9888 10.7885 10.9507 10.8696 10.8696C10.9507 10.7885 10.9912 10.6987 10.9912 10.6C10.9912 10.5013 10.9507 10.4115 10.8696 10.3304L8.39634 7.85714L10.8696 5.38389C10.9409 5.31258 10.979 5.22516 10.9839 5.12162C10.9888 5.01808 10.9507 4.92577 10.8696 4.84469C10.7885 4.76361 10.6987 4.72307 10.6 4.72307C10.5013 4.72307 10.4115 4.76361 10.3304 4.84469L7.85714 7.31794L5.38389 4.84469C5.31258 4.77338 5.22516 4.73529 5.12162 4.7304C5.01808 4.72551 4.92577 4.76361 4.84469 4.84469C4.76361 4.92577 4.72307 5.01563 4.72307 5.11429C4.72307 5.21294 4.76361 5.30281 4.84469 5.38389L7.31794 7.85714L4.84469 10.3304C4.77338 10.4017 4.73529 10.4891 4.7304 10.5927C4.72551 10.6962 4.76361 10.7885 4.84469 10.8696C4.92577 10.9507 5.01563 10.9912 5.11429 10.9912C5.21294 10.9912 5.30281 10.9507 5.38389 10.8696L7.85714 8.39634ZM7.8597 14.7143C6.91147 14.7143 6.01997 14.5344 5.18522 14.1745C4.35046 13.8146 3.62434 13.3262 3.00684 12.7093C2.38935 12.0924 1.90051 11.367 1.5403 10.533C1.1801 9.69901 1 8.80791 1 7.8597C1 6.91147 1.17993 6.01997 1.53979 5.18522C1.89966 4.35046 2.38806 3.62434 3.00497 3.00684C3.62189 2.38935 4.34733 1.90051 5.1813 1.54031C6.01528 1.1801 6.90637 1 7.85459 1C8.80282 1 9.69431 1.17993 10.5291 1.53979C11.3638 1.89966 12.0899 2.38806 12.7074 3.00497C13.3249 3.62189 13.8138 4.34733 14.174 5.1813C14.5342 6.01528 14.7143 6.90637 14.7143 7.85459C14.7143 8.80282 14.5344 9.69431 14.1745 10.5291C13.8146 11.3638 13.3262 12.0899 12.7093 12.7074C12.0924 13.3249 11.367 13.8138 10.533 14.174C9.69901 14.5342 8.80791 14.7143 7.8597 14.7143Z" fill="#BFBFBF"/>
</g>
</g>
<defs>
<clipPath id="clip0_2976_4591">
<rect width="16" height="16" fill="white"/>
</clipPath>
</defs>
</svg>
